<?xml version="1.0" encoding="UTF-8" standalone="no"?>
<!DOCTYPE svg PUBLIC "-//W3C//DTD SVG 1.1//EN" "http://www.w3.org/Graphics/SVG/1.1/DTD/svg11.dtd">
<svg xmlns="http://www.w3.org/2000/svg" version="1.1" viewBox="0.00 0.00 500.00 500.00">
<g stroke-width="2.00" fill="none" stroke-linecap="butt">
<path stroke="#ff783d" vector-effect="non-scaling-stroke" d="
  M 98.35 205.10
  L 98.30 212.42"
/>
<path stroke="#80be56" vector-effect="non-scaling-stroke" d="
  M 128.19 212.26
  L 128.23 204.85"
/>
</g>
<path fill="#ff3231" d="
  M 98.35 205.10
  L 98.30 212.42
  Q 90.13 212.81 82.75 212.58
  C 80.95 212.52 79.86 213.12 78.94 214.75
  C 73.74 223.99 63.80 226.99 55.21 220.03
  C 46.29 212.79 49.57 196.49 62.00 194.33
  C 70.33 192.88 75.76 196.40 79.26 203.75
  A 2.32 2.30 -12.5 0 0 81.33 205.06
  L 98.35 205.10
  Z"
/>
<path fill="#01bf62" d="
  M 128.19 212.26
  L 128.23 204.85
  L 145.65 205.31
  A 1.74 1.73 10.8 0 0 147.32 204.18
  C 150.04 196.84 157.35 192.46 165.07 194.28
  C 172.30 195.99 175.88 201.38 176.12 208.75
  C 176.71 226.18 153.15 229.15 147.09 213.38
  A 1.29 1.28 -10.0 0 0 145.90 212.55
  L 128.19 212.26
  Z"
/>
<path fill="#ffbd49" d="
  M 128.23 204.85
  L 128.19 212.26
  Q 122.32 224.34 112.22 223.58
  Q 107.56 223.23 103.86 220.08
  Q 100.27 217.02 98.30 212.42
  L 98.35 205.10
  Q 99.58 203.71 100.11 201.38
  A 0.64 0.63 -16.1 0 1 100.30 201.04
  L 106.21 195.26
  A 0.43 0.42 14.5 0 1 106.40 195.15
  Q 113.02 193.24 118.51 194.90
  C 124.29 196.65 125.26 200.70 128.23 204.85
  Z"
/>
<path fill="#202120" fill-opacity="0.996" d="
  M 381.2295 275.4956
  A 17.17 16.70 88.7 0 1 364.1443 258.7089
  A 17.17 16.70 88.7 0 1 380.4505 241.1644
  A 17.17 16.70 88.7 0 1 397.5357 257.9511
  A 17.17 16.70 88.7 0 1 381.2295 275.4956
  Z
  M 380.9893 271.6593
  A 13.30 12.61 89.4 0 0 393.4593 258.2280
  A 13.30 12.61 89.4 0 0 380.7107 245.0607
  A 13.30 12.61 89.4 0 0 368.2407 258.4920
  A 13.30 12.61 89.4 0 0 380.9893 271.6593
  Z"
/>
<path fill="#202120" fill-opacity="0.996" d="
  M 57.69 269.97
  A 0.87 0.86 -1.7 0 0 58.57 270.79
  Q 65.97 270.73 73.51 270.92
  C 74.82 270.96 75.58 271.91 75.21 273.17
  A 2.17 2.16 7.9 0 1 73.14 274.73
  L 57.03 274.78
  Q 53.39 274.79 53.37 271.15
  Q 53.32 257.45 53.35 244.00
  C 53.35 240.62 57.74 240.68 57.57 244.75
  Q 57.04 257.54 57.69 269.97
  Z"
/>
<rect fill="#202120" fill-opacity="0.996" x="101.91" y="241.55" width="4.04" height="33.36" rx="1.98"/>
<path fill="#202120" fill-opacity="0.996" d="
  M 159.28 260.46
  C 156.80 260.15 153.04 260.93 151.00 259.99
  A 1.62 1.62 0.0 0 1 151.68 256.89
  L 162.10 256.88
  A 1.42 1.42 0.0 0 1 163.52 258.30
  Q 163.52 263.89 163.53 269.76
  C 163.54 275.30 149.84 275.35 146.74 274.75
  C 135.76 272.63 131.94 259.90 136.12 250.63
  C 140.85 240.14 154.08 239.21 162.99 244.84
  A 1.62 1.62 0.0 0 1 162.99 247.59
  Q 161.68 248.40 159.66 247.37
  C 149.22 242.01 136.82 247.82 138.79 260.73
  C 140.40 271.27 151.24 273.35 159.62 269.63
  A 0.77 0.76 -11.8 0 0 160.08 268.93
  L 160.02 261.29
  A 0.85 0.84 -86.9 0 0 159.28 260.46
  Z"
/>
<path fill="#202120" fill-opacity="0.996" d="
  M 198.26 266.86
  Q 196.71 269.89 195.52 273.08
  C 194.92 274.70 193.43 275.88 191.81 274.44
  A 1.72 1.72 0.0 0 1 191.36 272.48
  L 203.75 243.24
  A 3.03 3.02 45.0 0 1 209.32 243.24
  L 221.76 272.55
  A 1.72 1.70 53.8 0 1 221.50 274.30
  C 220.34 275.68 218.65 275.10 217.90 273.68
  Q 216.40 270.83 215.42 267.78
  A 2.30 2.29 -8.8 0 0 213.23 266.19
  L 199.26 266.24
  A 1.14 1.13 12.9 0 0 198.26 266.86
  Z
  M 200.39 261.86
  A 0.52 0.52 0.0 0 0 200.87 262.57
  L 212.27 262.57
  A 0.52 0.52 0.0 0 0 212.75 261.86
  L 207.05 247.98
  A 0.52 0.52 0.0 0 0 206.09 247.98
  L 200.39 261.86
  Z"
/>
<path fill="#202120" fill-opacity="0.996" d="
  M 275.02 267.84
  Q 274.93 256.81 274.66 244.76
  Q 274.60 242.39 276.33 241.67
  A 1.82 1.81 78.8 0 1 278.84 243.36
  Q 278.70 257.87 278.76 272.25
  C 278.78 275.98 274.17 275.55 272.47 273.11
  Q 263.80 260.72 255.23 248.29
  Q 254.99 247.94 254.74 247.81
  A 0.41 0.41 0.0 0 0 254.14 248.18
  Q 254.37 260.23 254.46 272.24
  Q 254.48 274.82 252.38 275.00
  A 2.01 2.00 87.5 0 1 250.21 273.01
  Q 250.18 260.12 250.17 247.00
  Q 250.16 245.74 250.33 244.50
  C 250.96 239.80 255.33 241.43 257.17 244.11
  Q 265.43 256.20 273.83 268.22
  Q 275.03 269.95 275.02 267.84
  Z"
/>
<path fill="#202120" fill-opacity="0.996" d="
  M 309.38 244.15
  A 2.43 2.43 0.0 0 1 311.79 241.71
  L 321.37 241.66
  A 16.29 16.07 -0.3 0 1 337.75 257.65
  L 337.75 258.73
  A 16.29 16.07 -0.3 0 1 321.55 274.88
  L 311.97 274.93
  A 2.43 2.43 0.0 0 1 309.52 272.51
  L 309.38 244.15
  Z
  M 313.46 246.58
  L 313.50 270.08
  A 0.91 0.91 0.0 0 0 314.41 270.99
  L 321.09 270.97
  A 12.63 11.91 -0.1 0 0 333.70 259.04
  L 333.70 257.54
  A 12.63 11.91 -0.1 0 0 321.05 245.65
  L 314.37 245.67
  A 0.91 0.91 0.0 0 0 313.46 246.58
  Z"
/>
<path fill="#202120" fill-opacity="0.996" d="
  M 214.8450 309.1692
  A 8.40 8.07 92.9 0 1 207.2103 300.3717
  A 8.40 8.07 92.9 0 1 215.6950 292.3908
  A 8.40 8.07 92.9 0 1 223.3297 301.1883
  A 8.40 8.07 92.9 0 1 214.8450 309.1692
  Z
  M 215.5189 307.3360
  A 6.56 6.22 88.0 0 0 221.5062 300.5629
  A 6.56 6.22 88.0 0 0 215.0611 294.2240
  A 6.56 6.22 88.0 0 0 209.0738 300.9971
  A 6.56 6.22 88.0 0 0 215.5189 307.3360
  Z"
/>
<path fill="#202120" fill-opacity="0.996" d="
  M 241.84 303.21
  C 239.28 301.75 232.55 300.85 232.66 297.30
  C 232.84 291.81 240.03 291.72 243.79 293.54
  A 0.54 0.54 0.0 0 1 243.57 294.56
  C 240.97 294.64 237.02 293.37 235.05 295.79
  A 1.95 1.94 32.4 0 0 235.72 298.78
  Q 237.82 299.78 240.59 300.46
  C 245.85 301.75 245.91 307.75 240.50 308.81
  Q 236.89 309.52 233.50 307.95
  Q 232.62 307.54 232.72 306.57
  A 0.52 0.52 0.0 0 1 233.42 306.14
  C 235.61 307.01 240.48 307.98 242.31 305.74
  A 1.69 1.69 0.0 0 0 241.84 303.21
  Z"
/>
<path fill="#202120" fill-opacity="0.996" d="
  M 268.95 303.50
  Q 268.75 305.38 268.81 307.27
  Q 268.82 307.85 268.56 308.17
  Q 268.19 308.63 267.66 308.65
  A 0.76 0.76 0.0 0 1 266.88 307.89
  L 266.87 294.46
  A 1.93 1.93 0.0 0 1 268.79 292.52
  C 272.19 292.49 277.66 292.06 278.96 296.24
  Q 279.70 298.62 278.30 300.64
  C 276.23 303.64 272.65 302.40 269.55 302.87
  Q 269.00 302.95 268.95 303.50
  Z
  M 268.83 295.33
  L 268.79 300.13
  A 0.87 0.87 0.0 0 0 269.65 301.01
  L 273.58 301.04
  A 3.68 3.09 0.5 0 0 277.29 297.99
  L 277.29 297.63
  A 3.68 3.09 0.5 0 0 273.64 294.51
  L 269.71 294.47
  A 0.87 0.87 0.0 0 0 268.83 295.33
  Z"
/>
<path fill="#202120" fill-opacity="0.996" d="
  M 296.7237 309.1577
  A 8.39 8.07 86.9 0 1 288.2118 301.2164
  A 8.39 8.07 86.9 0 1 295.8163 292.4023
  A 8.39 8.07 86.9 0 1 304.3282 300.3436
  A 8.39 8.07 86.9 0 1 296.7237 309.1577
  Z
  M 296.0733 307.3568
  A 6.58 6.28 91.8 0 0 302.5569 300.9773
  A 6.58 6.28 91.8 0 0 296.4867 294.2032
  A 6.58 6.28 91.8 0 0 290.0031 300.5827
  A 6.58 6.28 91.8 0 0 296.0733 307.3568
  Z"
/>
<path fill="#202120" fill-opacity="0.996" d="
  M 326.81 305.50
  Q 326.89 300.38 326.77 295.25
  Q 326.74 293.85 327.41 292.90
  A 0.69 0.69 0.0 0 1 328.67 293.30
  L 328.65 307.41
  A 1.42 1.41 -1.7 0 1 327.31 308.82
  Q 326.03 308.89 325.04 307.41
  Q 321.18 301.67 317.20 295.80
  A 0.36 0.35 28.5 0 0 316.55 295.99
  L 316.42 308.00
  A 0.65 0.65 0.0 0 1 315.61 308.62
  Q 314.79 308.42 314.78 307.50
  Q 314.68 300.60 314.78 293.58
  A 1.20 1.20 0.0 0 1 316.40 292.48
  Q 317.17 292.78 317.86 293.86
  Q 321.79 299.97 326.26 305.69
  Q 326.80 306.38 326.81 305.50
  Z"
/>
<path fill="#202120" fill-opacity="0.996" d="
  M 368.9983 309.0623
  A 8.37 8.10 81.7 0 1 359.7748 301.9493
  A 8.37 8.10 81.7 0 1 366.5817 292.4977
  A 8.37 8.10 81.7 0 1 375.8052 299.6107
  A 8.37 8.10 81.7 0 1 368.9983 309.0623
  Z
  M 368.0303 307.3660
  A 6.60 6.25 88.0 0 0 374.0462 300.5519
  A 6.60 6.25 88.0 0 0 367.5697 294.1740
  A 6.60 6.25 88.0 0 0 361.5538 300.9881
  A 6.60 6.25 88.0 0 0 368.0303 307.3660
  Z"
/>
<path fill="#202120" fill-opacity="0.996" d="
  M 388.54 299.15
  C 391.80 299.86 397.42 300.92 396.75 305.49
  C 396.02 310.43 387.77 309.26 385.07 307.43
  A 0.73 0.73 0.0 0 1 385.76 306.15
  C 387.70 306.95 394.56 308.47 394.88 304.76
  A 2.13 2.12 -79.2 0 0 393.39 302.55
  C 390.60 301.68 384.70 300.76 385.02 297.01
  C 385.46 291.80 392.17 291.91 395.87 293.43
  A 0.63 0.62 -35.2 0 1 395.66 294.63
  C 392.97 294.76 388.87 293.06 387.15 296.07
  A 2.10 2.09 20.8 0 0 388.54 299.15
  Z"
/>
<path fill="#202120" fill-opacity="0.996" d="
  M 342.85 294.29
  Q 341.29 294.41 339.75 294.42
  Q 339.39 294.42 339.04 294.37
  Q 337.67 294.17 338.26 293.12
  A 0.70 0.69 -75.0 0 1 338.86 292.77
  L 350.57 292.68
  A 0.60 0.60 0.0 0 1 351.15 293.46
  Q 350.84 294.42 350.00 294.36
  Q 348.00 294.21 346.05 294.58
  A 0.66 0.66 0.0 0 0 345.51 295.23
  L 345.45 308.04
  A 0.68 0.68 0.0 0 1 344.13 308.27
  Q 343.70 307.10 343.81 305.51
  Q 344.18 300.20 343.61 294.92
  A 0.70 0.70 0.0 0 0 342.85 294.29
  Z"
/>
</svg>
